<svg width="20" height="22" viewBox="0 0 20 22" fill="none" xmlns="http://www.w3.org/2000/svg">
<path d="M10.5748 2.54016V1.58133C10.5748 1.41925 10.5104 1.26381 10.3958 1.14921C10.2812 1.0346 10.1257 0.970215 9.96367 0.970215C9.80159 0.970215 9.64615 1.0346 9.53155 1.14921C9.41694 1.26381 9.35256 1.41925 9.35256 1.58133V2.54566C4.55045 2.87933 0.744446 6.88974 0.744446 11.7753C0.744446 16.8777 4.89664 21.0299 10 21.0299C15.1034 21.0299 19.2556 16.8777 19.2556 11.7753C19.2556 6.8653 15.4114 2.83808 10.5748 2.54016ZM10 19.8077C5.57039 19.8077 1.96667 16.204 1.96667 11.7753C1.96667 7.34594 5.57039 3.74252 10 3.74252C14.4297 3.74252 18.0334 7.34594 18.0334 11.7753C18.0334 16.204 14.4297 19.8077 10 19.8077Z" fill="#363853"/>
<path d="M6.86293 17.3218C4.86796 16.1903 3.62863 14.0646 3.62863 11.775C3.62863 11.6058 3.49204 11.4695 3.32307 11.4695C3.1541 11.4695 3.01752 11.6058 3.01752 11.775C3.01752 14.2843 4.37571 16.6135 6.56166 17.8538C6.6322 17.8937 6.71572 17.904 6.79386 17.8824C6.87199 17.8607 6.93833 17.809 6.97828 17.7384C7.01823 17.6679 7.02852 17.5843 7.00689 17.5062C6.98526 17.4281 6.93348 17.3617 6.86293 17.3218Z" fill="#363853"/>
<path d="M8.52923 18.1598C8.41091 18.1289 8.29343 18.0949 8.17693 18.0578C8.10021 18.0348 8.01754 18.0429 7.94672 18.0802C7.87589 18.1176 7.82257 18.1813 7.79822 18.2576C7.77387 18.3339 7.78044 18.4167 7.81653 18.4882C7.85261 18.5596 7.91531 18.6141 7.99115 18.6398C8.11826 18.6808 8.24598 18.7175 8.37646 18.7508C8.4549 18.771 8.53817 18.7593 8.60796 18.7181C8.67775 18.677 8.72835 18.6098 8.74862 18.5314C8.75868 18.4926 8.76098 18.4522 8.75539 18.4125C8.7498 18.3728 8.73643 18.3346 8.71605 18.3001C8.69567 18.2655 8.66868 18.2354 8.63662 18.2113C8.60456 18.1872 8.56807 18.1697 8.52923 18.1598Z" fill="#363853"/>
<path d="M17.8854 5.728C18.0002 5.84242 18.1557 5.90658 18.3177 5.90635C18.4798 5.90612 18.6351 5.84153 18.7495 5.72677C18.864 5.61202 18.9281 5.45652 18.9279 5.29447C18.9277 5.13241 18.8631 4.97709 18.7483 4.86266L17.1616 3.27989C17.1048 3.22317 17.0374 3.1782 16.9632 3.14756C16.889 3.11692 16.8095 3.10121 16.7293 3.10132C16.649 3.10143 16.5695 3.11737 16.4955 3.14822C16.4214 3.17907 16.3541 3.22423 16.2975 3.28111C16.1831 3.39591 16.119 3.5514 16.1193 3.71342C16.1195 3.87544 16.184 4.03074 16.2987 4.14522L17.8854 5.728Z" fill="#363853"/>
<path d="M10.5746 11.6612V6.77566C10.5746 6.61359 10.5102 6.45815 10.3956 6.34354C10.281 6.22894 10.1255 6.16455 9.96347 6.16455C9.80139 6.16455 9.64595 6.22894 9.53135 6.34354C9.41674 6.45815 9.35236 6.61359 9.35236 6.77566V11.9252C9.35236 12.0936 9.44005 12.254 9.56227 12.3692L11.3507 14.0406C11.4689 14.1518 11.6196 14.2074 11.7702 14.2074C11.8521 14.2075 11.933 14.1905 12.0079 14.1574C12.0828 14.1244 12.1499 14.076 12.205 14.0155C12.4375 13.7698 12.4168 13.3833 12.1714 13.1517L10.5746 11.6612Z" fill="#363853"/>
</svg>
